<?xml version="1.0" standalone="no"?>
<!DOCTYPE svg PUBLIC "-//W3C//DTD SVG 20010904//EN"
 "http://www.w3.org/TR/2001/REC-SVG-20010904/DTD/svg10.dtd">
<svg version="1.0" xmlns="http://www.w3.org/2000/svg"
 width="542.000000pt" height="542.000000pt" viewBox="0 0 542.000000 542.000000"
 preserveAspectRatio="xMidYMid meet">
<metadata>
Created by potrace 1.14, written by Peter Selinger 2001-2017
</metadata>
<g transform="translate(0.000000,542.000000) scale(0.100000,-0.100000)"
fill="#000000" stroke="none">
<path d="M1105 1815 c0 -34 4 -55 11 -55 7 0 9 10 6 25 -4 21 0 25 19 26 l24
0 -22 9 c-13 6 -23 18 -23 30 0 11 -3 20 -7 20 -5 0 -8 -25 -8 -55z"/>
<path d="M1248 1839 c-25 -58 -31 -82 -20 -75 6 3 13 20 17 36 4 16 11 33 17
36 7 5 9 0 6 -14 -4 -13 0 -23 8 -26 8 -3 14 -12 14 -21 0 -8 5 -15 10 -15 14
0 12 8 -14 65 l-23 50 -15 -36z"/>
<path d="M1396 1820 c2 -70 11 -73 16 -6 2 33 -1 56 -7 56 -6 0 -9 -23 -9 -50z"/>
<path d="M1526 1820 c2 -71 14 -76 14 -7 0 32 -3 57 -7 57 -5 0 -7 -23 -7 -50z"/>
<path d="M1636 1832 c-9 -54 -7 -74 4 -67 6 4 8 10 5 15 -3 4 -1 18 3 30 8 22
9 22 21 -9 17 -39 23 -39 44 2 12 25 16 28 16 11 1 -11 7 -29 15 -39 12 -17
13 -13 4 35 -5 30 -11 57 -13 59 -2 2 -11 -13 -19 -33 -18 -44 -30 -45 -46 -6
-18 44 -27 44 -34 2z"/>
<path d="M1846 1823 c-9 -26 -16 -49 -16 -52 0 -12 28 35 32 54 4 16 7 13 21
-17 9 -21 20 -38 26 -38 5 0 0 23 -12 50 -11 28 -24 50 -28 50 -4 0 -14 -21
-23 -47z"/>
</g>
</svg>
